<svg xmlns="http://www.w3.org/2000/svg" xmlns:xlink="http://www.w3.org/1999/xlink" width="190" zoomAndPan="magnify" viewBox="0 0 142.5 33.749998" height="45" preserveAspectRatio="xMidYMid meet" version="1.0"><defs><clipPath id="35d9d01ab3"><path d="M 125 15 L 141.171875 15 L 141.171875 33 L 125 33 Z M 125 15 " clip-rule="nonzero"/></clipPath><clipPath id="ba1d00acdd"><path d="M 0.464844 1 L 30.6875 1 L 30.6875 33 L 0.464844 33 Z M 0.464844 1 " clip-rule="nonzero"/></clipPath></defs><path fill="#000000" d="M 37.972656 32.484375 C 37.027344 32.363281 36.28125 32.042969 35.738281 31.496094 C 35.207031 30.9375 34.945312 30.246094 34.945312 29.414062 C 34.945312 28.785156 35.101562 28.125 35.417969 27.4375 L 42.953125 10.289062 C 43.363281 9.316406 44.089844 8.828125 45.121094 8.828125 C 46.132812 8.828125 46.847656 9.316406 47.265625 10.289062 L 54.800781 27.4375 C 55.113281 28.167969 55.273438 28.828125 55.273438 29.414062 C 55.273438 30.246094 55 30.9375 54.457031 31.496094 C 53.925781 32.042969 53.175781 32.363281 52.203125 32.484375 L 49.433594 26.214844 L 40.785156 26.214844 Z M 48.082031 22.460938 L 44.476562 13.445312 L 44.066406 13.617188 L 44.863281 15.65625 L 42.09375 22.460938 Z M 48.082031 22.460938 " fill-opacity="1" fill-rule="nonzero"/><path fill="#000000" d="M 66.304688 32.484375 C 64.511719 32.484375 63.191406 31.96875 62.332031 30.9375 C 61.484375 29.90625 61.066406 28.578125 61.066406 26.945312 L 61.066406 18.789062 L 57.675781 18.789062 C 57.675781 17.757812 57.871094 16.996094 58.253906 16.492188 C 58.652344 15.976562 59.183594 15.71875 59.84375 15.71875 L 61.132812 15.71875 L 61.132812 12.992188 C 61.132812 12.09375 61.460938 11.449219 62.121094 11.0625 C 62.773438 10.675781 63.773438 10.480469 65.101562 10.480469 L 65.101562 15.71875 L 69.480469 15.71875 C 69.480469 16.824219 69.273438 17.609375 68.859375 18.082031 C 68.441406 18.554688 67.773438 18.789062 66.863281 18.789062 L 65.167969 18.789062 L 65.167969 26.773438 C 65.167969 27.546875 65.316406 28.097656 65.617188 28.425781 C 65.917969 28.757812 66.421875 28.921875 67.140625 28.921875 C 67.914062 28.921875 68.6875 28.714844 69.460938 28.296875 C 69.675781 28.5 69.847656 28.75 69.976562 29.050781 C 70.113281 29.339844 70.191406 29.640625 70.191406 29.949219 C 70.191406 30.609375 69.847656 31.195312 69.160156 31.710938 C 68.484375 32.226562 67.535156 32.484375 66.304688 32.484375 Z M 66.304688 32.484375 " fill-opacity="1" fill-rule="nonzero"/><path fill="#000000" d="M 80.15625 32.484375 C 78.722656 32.484375 77.429688 32.226562 76.269531 31.710938 C 75.121094 31.195312 74.21875 30.480469 73.566406 29.5625 C 72.90625 28.636719 72.578125 27.589844 72.578125 26.429688 L 72.578125 21.773438 C 72.578125 20.585938 72.898438 19.511719 73.542969 18.554688 C 74.199219 17.582031 75.09375 16.8125 76.226562 16.257812 C 77.371094 15.699219 78.679688 15.417969 80.15625 15.417969 C 81.625 15.417969 82.933594 15.699219 84.082031 16.257812 C 85.242188 16.8125 86.144531 17.582031 86.785156 18.554688 C 87.429688 19.511719 87.753906 20.585938 87.753906 21.773438 L 87.753906 26.429688 C 87.753906 27.589844 87.414062 28.636719 86.742188 29.5625 C 86.085938 30.480469 85.175781 31.195312 84.019531 31.710938 C 82.871094 32.226562 81.582031 32.484375 80.15625 32.484375 Z M 80.15625 28.964844 C 81.253906 28.964844 82.113281 28.714844 82.730469 28.210938 C 83.359375 27.695312 83.675781 27.011719 83.675781 26.152344 L 83.675781 21.964844 C 83.675781 21.082031 83.359375 20.355469 82.730469 19.796875 C 82.113281 19.230469 81.253906 18.9375 80.15625 18.9375 C 79.082031 18.9375 78.222656 19.230469 77.578125 19.796875 C 76.945312 20.355469 76.632812 21.082031 76.632812 21.964844 L 76.632812 26.152344 C 76.632812 27.011719 76.945312 27.695312 77.578125 28.210938 C 78.222656 28.714844 79.082031 28.964844 80.15625 28.964844 Z M 80.15625 28.964844 " fill-opacity="1" fill-rule="nonzero"/><path fill="#000000" d="M 90.964844 18.574219 C 90.964844 17.574219 91.277344 16.804688 91.910156 16.257812 C 92.539062 15.699219 93.503906 15.417969 94.808594 15.417969 L 94.808594 17.394531 C 94.40625 17.882812 94.140625 18.230469 94.015625 18.445312 L 94.25 18.574219 C 94.921875 17.542969 95.644531 16.765625 96.417969 16.234375 C 97.191406 15.691406 98.097656 15.417969 99.144531 15.417969 C 101.058594 15.417969 102.386719 16.359375 103.113281 18.230469 C 103.65625 17.34375 104.359375 16.660156 105.21875 16.171875 C 106.078125 15.671875 107.042969 15.417969 108.117188 15.417969 C 109.601562 15.417969 110.789062 15.964844 111.679688 17.050781 C 112.5625 18.140625 113.011719 19.53125 113.011719 21.214844 L 113.011719 29.972656 C 113.011719 30.863281 112.671875 31.507812 112 31.902344 C 111.339844 32.289062 110.332031 32.484375 108.972656 32.484375 L 108.972656 21.558594 C 108.972656 20.742188 108.785156 20.09375 108.417969 19.605469 C 108.058594 19.121094 107.503906 18.875 106.761719 18.875 C 105.976562 18.875 105.308594 19.148438 104.765625 19.691406 C 104.21875 20.222656 103.953125 21.058594 103.953125 22.203125 L 103.953125 29.972656 C 103.953125 30.863281 103.628906 31.507812 102.984375 31.902344 C 102.34375 32.289062 101.339844 32.484375 99.980469 32.484375 L 99.980469 21.558594 C 99.980469 20.714844 99.796875 20.054688 99.445312 19.582031 C 99.101562 19.109375 98.554688 18.875 97.8125 18.875 C 96.878906 18.875 96.183594 19.191406 95.710938 19.820312 C 95.238281 20.453125 95 21.300781 95 22.375 L 95 29.972656 C 95 30.863281 94.664062 31.507812 93.992188 31.902344 C 93.332031 32.289062 92.324219 32.484375 90.964844 32.484375 Z M 90.964844 18.574219 " fill-opacity="1" fill-rule="nonzero"/><path fill="#000000" d="M 119.40625 13.875 C 118.617188 13.875 117.96875 13.636719 117.453125 13.164062 C 116.9375 12.691406 116.679688 12.085938 116.679688 11.339844 C 116.679688 10.609375 116.9375 10.011719 117.453125 9.539062 C 117.96875 9.066406 118.617188 8.828125 119.40625 8.828125 C 120.1875 8.828125 120.84375 9.066406 121.359375 9.539062 C 121.875 10.011719 122.132812 10.609375 122.132812 11.339844 C 122.132812 12.085938 121.875 12.691406 121.359375 13.164062 C 120.84375 13.636719 120.1875 13.875 119.40625 13.875 Z M 117.324219 17.929688 C 117.324219 17.027344 117.65625 16.386719 118.332031 16 C 119.019531 15.613281 120.054688 15.417969 121.445312 15.417969 L 121.445312 29.972656 C 121.445312 30.863281 121.101562 31.507812 120.414062 31.902344 C 119.738281 32.289062 118.707031 32.484375 117.324219 32.484375 Z M 117.324219 17.929688 " fill-opacity="1" fill-rule="nonzero"/><g clip-path="url(#35d9d01ab3)"><path fill="#000000" d="M 133.433594 32.484375 C 132.902344 32.484375 132.449219 32.359375 132.0625 32.117188 C 131.675781 31.875 131.402344 31.550781 131.246094 31.132812 L 125.320312 15.761719 C 125.476562 15.664062 125.75 15.585938 126.136719 15.527344 C 126.523438 15.457031 126.835938 15.417969 127.082031 15.417969 C 127.710938 15.417969 128.285156 15.558594 128.800781 15.828125 C 129.3125 16.085938 129.65625 16.464844 129.828125 16.964844 L 133.222656 27.246094 L 132.664062 28.792969 L 132.941406 28.855469 L 137.019531 16.964844 C 137.191406 16.464844 137.535156 16.085938 138.050781 15.828125 C 138.566406 15.558594 139.144531 15.417969 139.789062 15.417969 C 140.03125 15.417969 140.335938 15.457031 140.710938 15.527344 C 141.097656 15.585938 141.367188 15.664062 141.527344 15.761719 L 135.601562 31.132812 C 135.441406 31.550781 135.175781 31.875 134.789062 32.117188 C 134.402344 32.359375 133.949219 32.484375 133.433594 32.484375 Z M 133.433594 32.484375 " fill-opacity="1" fill-rule="nonzero"/></g><g clip-path="url(#ba1d00acdd)"><path fill="#000000" d="M 9.734375 7.199219 L 9.75 13.320312 L 11.042969 14.199219 C 11.757812 14.683594 12.65625 15.296875 13.050781 15.5625 L 13.757812 16.050781 L 13.773438 24.25 L 13.789062 32.445312 L 18.96875 32.445312 L 19 14.371094 L 19.871094 13.777344 C 20.351562 13.453125 20.863281 13.101562 21.003906 13 L 21.265625 12.804688 L 21.265625 8.871094 L 20.996094 8.671875 C 20.851562 8.566406 20.40625 8.261719 20.003906 7.992188 C 19.605469 7.722656 18.878906 7.230469 18.382812 6.890625 C 17.890625 6.554688 16.871094 5.855469 16.109375 5.339844 C 15.351562 4.828125 14.355469 4.144531 13.890625 3.828125 C 13.425781 3.511719 12.332031 2.761719 11.449219 2.164062 C 10.570312 1.5625 9.820312 1.070312 9.78125 1.070312 C 9.738281 1.070312 9.722656 3.011719 9.734375 7.199219 M 7.871094 13.15625 C 6.40625 14.15625 2.371094 16.910156 1.640625 17.40625 L 0.777344 17.988281 L 0.816406 18.34375 C 0.835938 18.535156 0.902344 18.917969 0.953125 19.1875 C 1.007812 19.449219 1.164062 20.308594 1.308594 21.089844 C 1.449219 21.875 1.609375 22.75 1.664062 23.035156 C 1.742188 23.460938 1.953125 24.609375 2.113281 25.492188 C 2.3125 26.597656 2.546875 27.882812 2.601562 28.140625 C 2.640625 28.324219 2.691406 28.625 2.726562 28.824219 C 2.757812 29.015625 2.917969 29.902344 3.078125 30.792969 C 3.246094 31.679688 3.375 32.414062 3.375 32.425781 C 3.375 32.433594 4.511719 32.445312 5.902344 32.445312 L 8.425781 32.445312 L 8.425781 22.648438 C 8.425781 17.253906 8.402344 12.84375 8.375 12.847656 C 8.347656 12.847656 8.125 12.988281 7.871094 13.15625 M 22.589844 22.648438 L 22.589844 32.445312 L 27.667969 32.414062 L 27.703125 32.15625 C 27.730469 32.011719 27.8125 31.542969 27.890625 31.121094 C 27.96875 30.691406 28.058594 30.195312 28.089844 30.019531 C 28.121094 29.84375 28.191406 29.460938 28.246094 29.175781 C 28.300781 28.894531 28.472656 27.933594 28.636719 27.042969 C 28.800781 26.15625 28.976562 25.195312 29.03125 24.910156 C 29.082031 24.628906 29.152344 24.230469 29.183594 24.035156 C 29.21875 23.839844 29.277344 23.523438 29.3125 23.324219 C 29.421875 22.785156 29.554688 22.066406 29.675781 21.386719 C 29.734375 21.046875 29.820312 20.566406 29.867188 20.316406 C 30.183594 18.707031 30.289062 18.074219 30.257812 18.027344 C 30.242188 17.996094 29.59375 17.539062 28.816406 17.011719 C 28.042969 16.488281 27.1875 15.90625 26.921875 15.726562 C 23.050781 13.074219 22.707031 12.84375 22.644531 12.84375 C 22.613281 12.84375 22.589844 17.253906 22.589844 22.648438 " fill-opacity="1" fill-rule="evenodd"/></g></svg>