<svg xmlns="http://www.w3.org/2000/svg" xmlns:xlink="http://www.w3.org/1999/xlink" width="180" zoomAndPan="magnify" viewBox="0 0 135 30.000001" height="40" preserveAspectRatio="xMidYMid meet" version="1.0"><defs><clipPath id="16acd66f64"><path d="M 116 13 L 131.371094 13 L 131.371094 29 L 116 29 Z M 116 13 " clip-rule="nonzero"/></clipPath><clipPath id="9411623306"><path d="M 4 0.0390625 L 30.925781 0.0390625 L 30.925781 28.992188 L 4 28.992188 Z M 4 0.0390625 " clip-rule="nonzero"/></clipPath></defs><path fill="#000000" d="M 37.800781 28.878906 C 36.949219 28.777344 36.277344 28.480469 35.789062 27.980469 C 35.304688 27.484375 35.058594 26.859375 35.058594 26.105469 C 35.058594 25.527344 35.199219 24.933594 35.484375 24.324219 L 42.292969 8.820312 C 42.667969 7.945312 43.324219 7.507812 44.261719 7.507812 C 45.171875 7.507812 45.816406 7.945312 46.195312 8.820312 L 53.003906 24.324219 C 53.277344 24.976562 53.414062 25.570312 53.414062 26.105469 C 53.414062 26.859375 53.171875 27.484375 52.683594 27.980469 C 52.203125 28.480469 51.527344 28.777344 50.65625 28.878906 L 48.160156 23.226562 L 40.328125 23.226562 Z M 46.925781 19.832031 L 43.664062 11.683594 L 43.300781 11.835938 L 44.015625 13.675781 L 41.519531 19.832031 Z M 46.925781 19.832031 " fill-opacity="1" fill-rule="nonzero"/><path fill="#000000" d="M 63.382812 28.878906 C 61.777344 28.878906 60.589844 28.414062 59.820312 27.476562 C 59.046875 26.542969 58.664062 25.339844 58.664062 23.867188 L 58.664062 16.496094 L 55.585938 16.496094 C 55.585938 15.5625 55.761719 14.867188 56.121094 14.410156 C 56.484375 13.953125 56.960938 13.722656 57.550781 13.722656 L 58.707031 13.722656 L 58.707031 11.253906 C 58.707031 10.445312 59.003906 9.867188 59.605469 9.519531 C 60.207031 9.175781 61.109375 9 62.320312 9 L 62.320312 13.722656 L 66.261719 13.722656 C 66.261719 14.71875 66.074219 15.429688 65.699219 15.855469 C 65.324219 16.28125 64.71875 16.496094 63.886719 16.496094 L 62.378906 16.496094 L 62.378906 23.730469 C 62.378906 24.421875 62.507812 24.917969 62.777344 25.222656 C 63.039062 25.519531 63.5 25.664062 64.160156 25.664062 C 64.851562 25.664062 65.546875 25.476562 66.25 25.101562 C 66.4375 25.277344 66.589844 25.496094 66.707031 25.769531 C 66.828125 26.039062 66.886719 26.304688 66.886719 26.578125 C 66.886719 27.179688 66.574219 27.714844 65.957031 28.179688 C 65.351562 28.640625 64.488281 28.878906 63.382812 28.878906 Z M 63.382812 28.878906 " fill-opacity="1" fill-rule="nonzero"/><path fill="#000000" d="M 75.90625 28.878906 C 74.613281 28.878906 73.445312 28.640625 72.402344 28.179688 C 71.367188 27.714844 70.546875 27.0625 69.949219 26.226562 C 69.359375 25.398438 69.066406 24.453125 69.066406 23.394531 L 69.066406 19.207031 C 69.066406 18.132812 69.355469 17.160156 69.933594 16.296875 C 70.519531 15.425781 71.335938 14.734375 72.371094 14.226562 C 73.40625 13.71875 74.582031 13.464844 75.90625 13.464844 C 77.234375 13.464844 78.417969 13.71875 79.453125 14.226562 C 80.496094 14.734375 81.316406 15.425781 81.90625 16.296875 C 82.492188 17.160156 82.789062 18.132812 82.789062 19.207031 L 82.789062 23.394531 C 82.789062 24.453125 82.484375 25.398438 81.875 26.226562 C 81.265625 27.0625 80.4375 27.714844 79.394531 28.179688 C 78.355469 28.640625 77.191406 28.878906 75.90625 28.878906 Z M 75.90625 25.695312 C 76.898438 25.695312 77.675781 25.464844 78.234375 25.007812 C 78.800781 24.554688 79.089844 23.941406 79.089844 23.167969 L 79.089844 19.390625 C 79.089844 18.566406 78.800781 17.90625 78.234375 17.410156 C 77.675781 16.902344 76.898438 16.648438 75.90625 16.648438 C 74.9375 16.648438 74.167969 16.902344 73.589844 17.410156 C 73.011719 17.90625 72.722656 18.566406 72.722656 19.390625 L 72.722656 23.167969 C 72.722656 23.941406 73.011719 24.554688 73.589844 25.007812 C 74.167969 25.464844 74.9375 25.695312 75.90625 25.695312 Z M 75.90625 25.695312 " fill-opacity="1" fill-rule="nonzero"/><path fill="#000000" d="M 85.667969 16.3125 C 85.667969 15.410156 85.957031 14.710938 86.535156 14.210938 C 87.113281 13.714844 87.988281 13.464844 89.15625 13.464844 L 89.15625 15.246094 C 88.796875 15.683594 88.5625 16.003906 88.441406 16.207031 L 88.652344 16.3125 C 89.261719 15.390625 89.910156 14.683594 90.601562 14.195312 C 91.304688 13.707031 92.128906 13.464844 93.085938 13.464844 C 94.800781 13.464844 95.988281 14.308594 96.648438 15.992188 C 97.144531 15.199219 97.78125 14.582031 98.554688 14.132812 C 99.324219 13.6875 100.199219 13.464844 101.171875 13.464844 C 102.523438 13.464844 103.597656 13.960938 104.402344 14.941406 C 105.203125 15.917969 105.605469 17.171875 105.605469 18.703125 L 105.605469 26.609375 C 105.605469 27.402344 105.300781 27.980469 104.691406 28.34375 C 104.089844 28.699219 103.175781 28.878906 101.949219 28.878906 L 101.949219 18.992188 C 101.949219 18.261719 101.78125 17.679688 101.449219 17.242188 C 101.121094 16.808594 100.625 16.585938 99.957031 16.585938 C 99.230469 16.585938 98.628906 16.832031 98.144531 17.316406 C 97.664062 17.804688 97.425781 18.5625 97.425781 19.585938 L 97.425781 26.609375 C 97.425781 27.402344 97.128906 27.980469 96.542969 28.34375 C 95.953125 28.699219 95.042969 28.878906 93.816406 28.878906 L 93.816406 18.992188 C 93.816406 18.242188 93.65625 17.652344 93.34375 17.226562 C 93.027344 16.800781 92.53125 16.585938 91.851562 16.585938 C 91.019531 16.585938 90.390625 16.871094 89.964844 17.441406 C 89.535156 18 89.324219 18.765625 89.324219 19.738281 L 89.324219 26.609375 C 89.324219 27.402344 89.019531 27.980469 88.410156 28.34375 C 87.808594 28.699219 86.894531 28.878906 85.667969 28.878906 Z M 85.667969 16.3125 " fill-opacity="1" fill-rule="nonzero"/><path fill="#000000" d="M 111.371094 12.0625 C 110.660156 12.0625 110.070312 11.847656 109.605469 11.421875 C 109.136719 10.996094 108.902344 10.449219 108.902344 9.777344 C 108.902344 9.121094 109.136719 8.574219 109.605469 8.148438 C 110.070312 7.722656 110.660156 7.507812 111.371094 7.507812 C 112.089844 7.507812 112.679688 7.722656 113.136719 8.148438 C 113.601562 8.574219 113.839844 9.121094 113.839844 9.777344 C 113.839844 10.449219 113.601562 10.996094 113.136719 11.421875 C 112.679688 11.847656 112.089844 12.0625 111.371094 12.0625 Z M 109.496094 15.71875 C 109.496094 14.90625 109.800781 14.328125 110.410156 13.980469 C 111.027344 13.640625 111.964844 13.464844 113.214844 13.464844 L 113.214844 26.609375 C 113.214844 27.402344 112.902344 27.980469 112.285156 28.34375 C 111.675781 28.699219 110.746094 28.878906 109.496094 28.878906 Z M 109.496094 15.71875 " fill-opacity="1" fill-rule="nonzero"/><g clip-path="url(#16acd66f64)"><path fill="#000000" d="M 124.054688 28.878906 C 123.574219 28.878906 123.160156 28.773438 122.808594 28.558594 C 122.460938 28.335938 122.21875 28.035156 122.089844 27.660156 L 116.730469 13.753906 C 116.871094 13.683594 117.113281 13.617188 117.460938 13.554688 C 117.804688 13.496094 118.089844 13.464844 118.3125 13.464844 C 118.878906 13.464844 119.398438 13.585938 119.867188 13.828125 C 120.332031 14.066406 120.648438 14.410156 120.8125 14.867188 L 123.871094 24.140625 L 123.371094 25.542969 L 123.597656 25.605469 L 127.300781 14.867188 C 127.453125 14.410156 127.761719 14.066406 128.230469 13.828125 C 128.695312 13.585938 129.21875 13.464844 129.796875 13.464844 C 130.011719 13.464844 130.289062 13.496094 130.636719 13.554688 C 130.980469 13.617188 131.222656 13.683594 131.367188 13.753906 L 126.019531 27.660156 C 125.875 28.035156 125.632812 28.335938 125.289062 28.558594 C 124.941406 28.773438 124.53125 28.878906 124.054688 28.878906 Z M 124.054688 28.878906 " fill-opacity="1" fill-rule="nonzero"/></g><g clip-path="url(#9411623306)"><path fill="#000000" d="M 12.269531 6.023438 L 12.285156 11.554688 L 13.453125 12.351562 C 14.097656 12.785156 14.914062 13.339844 15.265625 13.585938 L 15.910156 14.027344 L 15.925781 21.429688 L 15.9375 28.835938 L 20.613281 28.835938 L 20.644531 12.507812 L 21.429688 11.96875 C 21.867188 11.675781 22.324219 11.355469 22.457031 11.261719 L 22.6875 11.089844 L 22.6875 7.539062 L 22.449219 7.359375 C 22.316406 7.257812 21.910156 6.984375 21.554688 6.742188 C 21.191406 6.5 20.53125 6.054688 20.085938 5.746094 C 19.640625 5.441406 18.714844 4.8125 18.035156 4.347656 C 17.347656 3.882812 16.445312 3.265625 16.027344 2.980469 C 15.609375 2.695312 14.613281 2.015625 13.820312 1.476562 C 13.027344 0.929688 12.347656 0.488281 12.316406 0.488281 C 12.273438 0.488281 12.257812 2.242188 12.269531 6.023438 M 10.589844 11.40625 C 9.265625 12.3125 5.621094 14.796875 4.957031 15.246094 L 4.175781 15.773438 L 4.214844 16.09375 C 4.234375 16.269531 4.292969 16.613281 4.335938 16.855469 C 4.386719 17.09375 4.53125 17.871094 4.65625 18.578125 C 4.785156 19.285156 4.925781 20.074219 4.976562 20.332031 C 5.054688 20.71875 5.242188 21.757812 5.382812 22.550781 C 5.5625 23.550781 5.777344 24.710938 5.828125 24.949219 C 5.859375 25.109375 5.910156 25.386719 5.941406 25.5625 C 5.972656 25.738281 6.117188 26.539062 6.261719 27.339844 C 6.410156 28.140625 6.527344 28.804688 6.527344 28.816406 C 6.527344 28.828125 7.554688 28.835938 8.808594 28.835938 L 11.085938 28.835938 L 11.085938 19.980469 C 11.085938 15.113281 11.066406 11.128906 11.042969 11.128906 C 11.019531 11.128906 10.816406 11.253906 10.589844 11.40625 M 23.886719 19.980469 L 23.886719 28.835938 L 26.179688 28.820312 L 28.476562 28.804688 L 28.511719 28.574219 C 28.527344 28.441406 28.605469 28.023438 28.671875 27.636719 C 28.746094 27.25 28.824219 26.804688 28.855469 26.640625 C 28.886719 26.480469 28.949219 26.140625 28.996094 25.882812 C 29.042969 25.625 29.203125 24.757812 29.351562 23.953125 C 29.496094 23.148438 29.65625 22.28125 29.707031 22.027344 C 29.753906 21.769531 29.816406 21.414062 29.847656 21.238281 C 29.875 21.058594 29.925781 20.769531 29.960938 20.59375 C 30.058594 20.109375 30.179688 19.460938 30.285156 18.839844 C 30.339844 18.535156 30.417969 18.101562 30.464844 17.875 C 30.746094 16.425781 30.84375 15.855469 30.8125 15.808594 C 30.796875 15.78125 30.210938 15.367188 29.511719 14.890625 C 28.8125 14.414062 28.042969 13.894531 27.800781 13.726562 C 24.304688 11.335938 23.996094 11.125 23.933594 11.125 C 23.90625 11.125 23.886719 15.113281 23.886719 19.980469 " fill-opacity="1" fill-rule="evenodd"/></g></svg>