<svg xmlns="http://www.w3.org/2000/svg" xmlns:xlink="http://www.w3.org/1999/xlink" width="500" zoomAndPan="magnify" viewBox="0 0 375 374.999991" height="500" preserveAspectRatio="xMidYMid meet" version="1.0"><defs><clipPath id="80b571e307"><path d="M 11.210938 0 L 363.710938 0 L 363.710938 374.957031 L 11.210938 374.957031 Z M 11.210938 0 " clip-rule="nonzero"/></clipPath></defs><g clip-path="url(#80b571e307)"><path fill="#ffffff" d="M 118.308594 73.171875 L 118.507812 146.382812 L 133.992188 156.882812 C 142.507812 162.660156 153.296875 170.015625 157.964844 173.230469 L 166.453125 179.078125 L 166.652344 277.050781 L 166.847656 375.027344 L 228.703125 375.027344 L 228.898438 267 L 229.09375 158.976562 L 239.535156 151.878906 C 245.277344 147.972656 251.367188 143.761719 253.066406 142.515625 L 256.160156 140.253906 L 256.160156 93.222656 L 252.976562 90.863281 C 251.222656 89.566406 245.898438 85.894531 241.136719 82.707031 C 236.378906 79.515625 227.65625 73.597656 221.757812 69.558594 C 215.855469 65.519531 203.621094 57.167969 194.566406 51 C 185.515625 44.832031 173.570312 36.691406 168.027344 32.910156 C 162.484375 29.128906 149.34375 20.167969 138.828125 12.996094 C 128.316406 5.824219 119.351562 -0.0429688 118.914062 -0.0429688 C 118.367188 -0.0429688 118.175781 23.152344 118.308594 73.171875 M 96.082031 144.433594 C 78.554688 156.421875 30.328125 189.28125 21.5625 195.203125 L 11.234375 202.183594 L 11.722656 206.4375 C 11.988281 208.777344 12.730469 213.300781 13.371094 216.492188 C 14.011719 219.683594 15.910156 229.949219 17.59375 239.304688 C 19.273438 248.664062 21.183594 259.101562 21.835938 262.503906 C 22.8125 267.625 25.328125 281.351562 27.21875 291.890625 C 29.585938 305.097656 32.417969 320.476562 33.058594 323.597656 C 33.492188 325.726562 34.171875 329.378906 34.566406 331.71875 C 34.960938 334.058594 36.867188 344.640625 38.808594 355.238281 C 40.746094 365.835938 42.335938 374.621094 42.335938 374.765625 C 42.335938 374.910156 55.90625 375.027344 72.492188 375.027344 L 102.652344 375.027344 L 102.652344 257.867188 C 102.652344 193.425781 102.394531 140.710938 102.074219 140.71875 C 101.753906 140.726562 99.058594 142.398438 96.082031 144.433594 M 272.015625 257.875 L 272.015625 375.042969 L 302.367188 374.839844 L 332.722656 374.640625 L 333.195312 371.546875 C 333.453125 369.84375 334.4375 364.277344 335.378906 359.171875 C 336.320312 354.066406 337.402344 348.152344 337.785156 346.027344 C 338.164062 343.898438 338.992188 339.375 339.625 335.972656 C 340.253906 332.570312 342.367188 321.085938 344.316406 310.453125 C 346.269531 299.820312 348.382812 288.335938 349.019531 284.933594 C 349.65625 281.53125 350.488281 276.832031 350.863281 274.492188 C 351.238281 272.152344 351.929688 268.324219 352.398438 265.984375 C 353.683594 259.5625 355.277344 250.964844 356.699219 242.785156 C 357.402344 238.746094 358.453125 233.003906 359.035156 230.027344 C 362.777344 210.832031 364.070312 203.246094 363.703125 202.652344 C 363.476562 202.28125 355.714844 196.828125 346.457031 190.535156 C 337.199219 184.242188 327.015625 177.304688 323.828125 175.121094 C 277.570312 143.464844 273.46875 140.707031 272.644531 140.707031 C 272.296875 140.707031 272.015625 193.429688 272.015625 257.875 " fill-opacity="1" fill-rule="evenodd"/><path fill="#a6a6a6" d="M 118.308594 73.171875 L 118.507812 146.382812 L 133.992188 156.882812 C 142.507812 162.660156 153.296875 170.015625 157.964844 173.230469 L 166.453125 179.078125 L 166.652344 277.050781 L 166.847656 375.027344 L 228.703125 375.027344 L 228.898438 267 L 229.09375 158.976562 L 239.535156 151.878906 C 245.277344 147.972656 251.367188 143.761719 253.066406 142.515625 L 256.160156 140.253906 L 256.160156 93.222656 L 252.976562 90.863281 C 251.222656 89.566406 245.898438 85.894531 241.136719 82.707031 C 236.378906 79.515625 227.65625 73.597656 221.757812 69.558594 C 215.855469 65.519531 203.621094 57.167969 194.566406 51 C 185.515625 44.832031 173.570312 36.691406 168.027344 32.910156 C 162.484375 29.128906 149.34375 20.167969 138.828125 12.996094 C 128.316406 5.824219 119.351562 -0.0429688 118.914062 -0.0429688 C 118.367188 -0.0429688 118.175781 23.152344 118.308594 73.171875 M 96.082031 144.433594 C 78.554688 156.421875 30.328125 189.28125 21.5625 195.203125 L 11.234375 202.183594 L 11.722656 206.4375 C 11.988281 208.777344 12.730469 213.300781 13.371094 216.492188 C 14.011719 219.683594 15.910156 229.949219 17.59375 239.304688 C 19.273438 248.664062 21.183594 259.101562 21.835938 262.503906 C 22.8125 267.625 25.328125 281.351562 27.21875 291.890625 C 29.585938 305.097656 32.417969 320.476562 33.058594 323.597656 C 33.492188 325.726562 34.171875 329.378906 34.566406 331.71875 C 34.960938 334.058594 36.867188 344.640625 38.808594 355.238281 C 40.746094 365.835938 42.335938 374.621094 42.335938 374.765625 C 42.335938 374.910156 55.90625 375.027344 72.492188 375.027344 L 102.652344 375.027344 L 102.652344 257.867188 C 102.652344 193.425781 102.394531 140.710938 102.074219 140.71875 C 101.753906 140.726562 99.058594 142.398438 96.082031 144.433594 M 272.015625 257.875 L 272.015625 375.042969 L 302.367188 374.839844 L 332.722656 374.640625 L 333.195312 371.546875 C 333.453125 369.84375 334.4375 364.277344 335.378906 359.171875 C 336.320312 354.066406 337.402344 348.152344 337.785156 346.027344 C 338.164062 343.898438 338.992188 339.375 339.625 335.972656 C 340.253906 332.570312 342.367188 321.085938 344.316406 310.453125 C 346.269531 299.820312 348.382812 288.335938 349.019531 284.933594 C 349.65625 281.53125 350.488281 276.832031 350.863281 274.492188 C 351.238281 272.152344 351.929688 268.324219 352.398438 265.984375 C 353.683594 259.5625 355.277344 250.964844 356.699219 242.785156 C 357.402344 238.746094 358.453125 233.003906 359.035156 230.027344 C 362.777344 210.832031 364.070312 203.246094 363.703125 202.652344 C 363.476562 202.28125 355.714844 196.828125 346.457031 190.535156 C 337.199219 184.242188 327.015625 177.304688 323.828125 175.121094 C 277.570312 143.464844 273.46875 140.707031 272.644531 140.707031 C 272.296875 140.707031 272.015625 193.429688 272.015625 257.875 " fill-opacity="1" fill-rule="evenodd"/></g></svg>