<svg xmlns="http://www.w3.org/2000/svg" xmlns:xlink="http://www.w3.org/1999/xlink" width="190" zoomAndPan="magnify" viewBox="0 0 142.5 33.749998" height="45" preserveAspectRatio="xMidYMid meet" version="1.0"><defs><clipPath id="0b39f8019b"><path d="M 125 15 L 141.171875 15 L 141.171875 33 L 125 33 Z M 125 15 " clip-rule="nonzero"/></clipPath><clipPath id="742dd9ee88"><path d="M 0.464844 1 L 30.609375 1 L 30.609375 32.957031 L 0.464844 32.957031 Z M 0.464844 1 " clip-rule="nonzero"/></clipPath></defs><path fill="#ffffff" d="M 37.875 32.414062 C 36.933594 32.296875 36.191406 31.976562 35.648438 31.429688 C 35.121094 30.871094 34.859375 30.183594 34.859375 29.351562 C 34.859375 28.726562 35.011719 28.066406 35.328125 27.382812 L 42.84375 10.269531 C 43.253906 9.296875 43.976562 8.8125 45.003906 8.8125 C 46.015625 8.8125 46.730469 9.296875 47.148438 10.269531 L 54.660156 27.382812 C 54.972656 28.109375 55.132812 28.769531 55.132812 29.351562 C 55.132812 30.183594 54.859375 30.871094 54.320312 31.429688 C 53.789062 31.976562 53.039062 32.296875 52.070312 32.414062 L 49.308594 26.160156 L 40.679688 26.160156 Z M 47.960938 22.414062 L 44.363281 13.417969 L 43.957031 13.585938 L 44.75 15.621094 L 41.988281 22.414062 Z M 47.960938 22.414062 " fill-opacity="1" fill-rule="nonzero"/><path fill="#ffffff" d="M 66.136719 32.414062 C 64.347656 32.414062 63.03125 31.902344 62.175781 30.871094 C 61.328125 29.84375 60.914062 28.515625 60.914062 26.890625 L 60.914062 18.75 L 57.53125 18.75 C 57.53125 17.722656 57.722656 16.960938 58.109375 16.457031 C 58.503906 15.945312 59.035156 15.6875 59.691406 15.6875 L 60.976562 15.6875 L 60.976562 12.964844 C 60.976562 12.066406 61.304688 11.425781 61.960938 11.039062 C 62.613281 10.652344 63.609375 10.460938 64.9375 10.460938 L 64.9375 15.6875 L 69.304688 15.6875 C 69.304688 16.789062 69.097656 17.570312 68.683594 18.042969 C 68.265625 18.515625 67.601562 18.75 66.691406 18.75 L 65 18.75 L 65 26.71875 C 65 27.488281 65.152344 28.039062 65.453125 28.367188 C 65.75 28.699219 66.253906 28.859375 66.972656 28.859375 C 67.742188 28.859375 68.511719 28.65625 69.285156 28.238281 C 69.496094 28.441406 69.667969 28.6875 69.796875 28.988281 C 69.9375 29.277344 70.011719 29.578125 70.011719 29.886719 C 70.011719 30.546875 69.667969 31.128906 68.984375 31.644531 C 68.308594 32.15625 67.363281 32.414062 66.136719 32.414062 Z M 66.136719 32.414062 " fill-opacity="1" fill-rule="nonzero"/><path fill="#ffffff" d="M 79.949219 32.414062 C 78.523438 32.414062 77.230469 32.15625 76.074219 31.644531 C 74.929688 31.128906 74.03125 30.417969 73.378906 29.5 C 72.71875 28.574219 72.394531 27.53125 72.394531 26.375 L 72.394531 21.726562 C 72.394531 20.542969 72.714844 19.472656 73.355469 18.515625 C 74.007812 17.542969 74.902344 16.777344 76.03125 16.222656 C 77.171875 15.664062 78.480469 15.386719 79.949219 15.386719 C 81.417969 15.386719 82.722656 15.664062 83.867188 16.222656 C 85.023438 16.777344 85.925781 17.542969 86.566406 18.515625 C 87.207031 19.472656 87.53125 20.542969 87.53125 21.726562 L 87.53125 26.375 C 87.53125 27.53125 87.191406 28.574219 86.523438 29.5 C 85.863281 30.417969 84.960938 31.128906 83.804688 31.644531 C 82.660156 32.15625 81.375 32.414062 79.949219 32.414062 Z M 79.949219 28.902344 C 81.046875 28.902344 81.90625 28.65625 82.519531 28.152344 C 83.144531 27.636719 83.460938 26.953125 83.460938 26.097656 L 83.460938 21.917969 C 83.460938 21.035156 83.144531 20.3125 82.519531 19.757812 C 81.90625 19.1875 81.046875 18.898438 79.949219 18.898438 C 78.878906 18.898438 78.023438 19.1875 77.382812 19.757812 C 76.75 20.3125 76.441406 21.035156 76.441406 21.917969 L 76.441406 26.097656 C 76.441406 26.953125 76.75 27.636719 77.382812 28.152344 C 78.023438 28.65625 78.878906 28.902344 79.949219 28.902344 Z M 79.949219 28.902344 " fill-opacity="1" fill-rule="nonzero"/><path fill="#ffffff" d="M 90.734375 18.535156 C 90.734375 17.539062 91.042969 16.769531 91.675781 16.222656 C 92.300781 15.664062 93.265625 15.386719 94.566406 15.386719 L 94.566406 17.355469 C 94.164062 17.84375 93.902344 18.191406 93.773438 18.40625 L 94.011719 18.535156 C 94.679688 17.507812 95.402344 16.730469 96.171875 16.199219 C 96.941406 15.660156 97.847656 15.386719 98.890625 15.386719 C 100.800781 15.386719 102.125 16.324219 102.851562 18.191406 C 103.394531 17.308594 104.09375 16.625 104.949219 16.136719 C 105.808594 15.636719 106.769531 15.386719 107.839844 15.386719 C 109.324219 15.386719 110.507812 15.933594 111.394531 17.015625 C 112.277344 18.101562 112.722656 19.488281 112.722656 21.171875 L 112.722656 29.910156 C 112.722656 30.796875 112.386719 31.441406 111.714844 31.835938 C 111.058594 32.222656 110.050781 32.414062 108.695312 32.414062 L 108.695312 21.511719 C 108.695312 20.699219 108.511719 20.050781 108.140625 19.5625 C 107.78125 19.082031 107.230469 18.835938 106.492188 18.835938 C 105.707031 18.835938 105.042969 19.109375 104.5 19.648438 C 103.953125 20.179688 103.6875 21.015625 103.6875 22.15625 L 103.6875 29.910156 C 103.6875 30.796875 103.367188 31.441406 102.722656 31.835938 C 102.082031 32.222656 101.082031 32.414062 99.726562 32.414062 L 99.726562 21.511719 C 99.726562 20.671875 99.542969 20.011719 99.191406 19.542969 C 98.847656 19.070312 98.304688 18.835938 97.5625 18.835938 C 96.632812 18.835938 95.9375 19.152344 95.464844 19.777344 C 94.996094 20.410156 94.757812 21.253906 94.757812 22.328125 L 94.757812 29.910156 C 94.757812 30.796875 94.421875 31.441406 93.753906 31.835938 C 93.09375 32.222656 92.089844 32.414062 90.734375 32.414062 Z M 90.734375 18.535156 " fill-opacity="1" fill-rule="nonzero"/><path fill="#ffffff" d="M 119.101562 13.84375 C 118.3125 13.84375 117.667969 13.609375 117.152344 13.136719 C 116.640625 12.667969 116.382812 12.0625 116.382812 11.316406 C 116.382812 10.589844 116.640625 9.988281 117.152344 9.519531 C 117.667969 9.046875 118.3125 8.8125 119.101562 8.8125 C 119.882812 8.8125 120.535156 9.046875 121.050781 9.519531 C 121.5625 9.988281 121.820312 10.589844 121.820312 11.316406 C 121.820312 12.0625 121.5625 12.667969 121.050781 13.136719 C 120.535156 13.609375 119.882812 13.84375 119.101562 13.84375 Z M 117.023438 17.894531 C 117.023438 16.992188 117.355469 16.351562 118.03125 15.964844 C 118.714844 15.578125 119.75 15.386719 121.136719 15.386719 L 121.136719 29.910156 C 121.136719 30.796875 120.792969 31.441406 120.109375 31.835938 C 119.433594 32.222656 118.40625 32.414062 117.023438 32.414062 Z M 117.023438 17.894531 " fill-opacity="1" fill-rule="nonzero"/><g clip-path="url(#0b39f8019b)"><path fill="#ffffff" d="M 133.09375 32.414062 C 132.566406 32.414062 132.109375 32.292969 131.726562 32.050781 C 131.339844 31.808594 131.066406 31.484375 130.910156 31.066406 L 125.003906 15.730469 C 125.15625 15.632812 125.429688 15.554688 125.816406 15.492188 C 126.203125 15.425781 126.511719 15.386719 126.757812 15.386719 C 127.382812 15.386719 127.957031 15.527344 128.472656 15.792969 C 128.984375 16.050781 129.328125 16.429688 129.5 16.929688 L 132.882812 27.1875 L 132.324219 28.730469 L 132.601562 28.796875 L 136.671875 16.929688 C 136.84375 16.429688 137.183594 16.050781 137.699219 15.792969 C 138.210938 15.527344 138.789062 15.386719 139.433594 15.386719 C 139.671875 15.386719 139.980469 15.425781 140.351562 15.492188 C 140.738281 15.554688 141.007812 15.632812 141.167969 15.730469 L 135.257812 31.066406 C 135.097656 31.484375 134.828125 31.808594 134.445312 32.050781 C 134.058594 32.292969 133.609375 32.414062 133.09375 32.414062 Z M 133.09375 32.414062 " fill-opacity="1" fill-rule="nonzero"/></g><g clip-path="url(#742dd9ee88)"><path fill="#ffffff" d="M 9.710938 7.183594 L 9.726562 13.292969 L 11.015625 14.171875 C 11.726562 14.652344 12.625 15.265625 13.015625 15.53125 L 13.722656 16.019531 L 13.738281 24.199219 L 13.757812 32.378906 L 18.921875 32.378906 L 18.953125 14.34375 L 19.820312 13.75 C 20.300781 13.425781 20.808594 13.074219 20.949219 12.972656 L 21.210938 12.777344 L 21.210938 8.855469 L 20.945312 8.65625 C 20.800781 8.550781 20.355469 8.242188 19.953125 7.976562 C 19.558594 7.707031 18.832031 7.214844 18.335938 6.878906 C 17.84375 6.539062 16.828125 5.84375 16.066406 5.332031 C 15.3125 4.816406 14.316406 4.136719 13.859375 3.820312 C 13.390625 3.503906 12.300781 2.753906 11.421875 2.160156 C 10.542969 1.5625 9.796875 1.066406 9.757812 1.066406 C 9.714844 1.066406 9.699219 3.007812 9.710938 7.183594 M 7.851562 13.128906 C 6.390625 14.128906 2.367188 16.875 1.636719 17.367188 L 0.777344 17.953125 L 0.8125 18.304688 C 0.835938 18.496094 0.898438 18.878906 0.953125 19.144531 C 1.007812 19.410156 1.160156 20.265625 1.304688 21.046875 C 1.445312 21.828125 1.605469 22.703125 1.660156 22.984375 C 1.738281 23.414062 1.949219 24.558594 2.109375 25.4375 C 2.308594 26.539062 2.542969 27.824219 2.597656 28.082031 C 2.632812 28.265625 2.6875 28.566406 2.71875 28.761719 C 2.75 28.957031 2.910156 29.839844 3.074219 30.726562 C 3.238281 31.613281 3.367188 32.34375 3.367188 32.355469 C 3.367188 32.367188 4.5 32.378906 5.886719 32.378906 L 8.402344 32.378906 L 8.402344 22.601562 C 8.402344 17.21875 8.382812 12.816406 8.355469 12.820312 C 8.328125 12.820312 8.105469 12.960938 7.851562 13.128906 M 22.535156 22.601562 L 22.535156 32.378906 L 27.597656 32.34375 L 27.636719 32.089844 C 27.660156 31.945312 27.742188 31.476562 27.820312 31.054688 C 27.898438 30.625 27.988281 30.132812 28.019531 29.957031 C 28.050781 29.78125 28.121094 29.398438 28.175781 29.117188 C 28.230469 28.832031 28.398438 27.875 28.566406 26.984375 C 28.726562 26.101562 28.902344 25.144531 28.957031 24.859375 C 29.011719 24.574219 29.078125 24.179688 29.113281 23.988281 C 29.144531 23.789062 29.203125 23.472656 29.242188 23.273438 C 29.347656 22.738281 29.480469 22.019531 29.597656 21.339844 C 29.65625 21.003906 29.742188 20.523438 29.792969 20.277344 C 30.109375 18.667969 30.214844 18.039062 30.183594 17.988281 C 30.167969 17.957031 29.519531 17.503906 28.742188 16.976562 C 27.972656 16.453125 27.121094 15.875 26.851562 15.691406 C 22.996094 13.046875 22.652344 12.816406 22.585938 12.816406 C 22.554688 12.816406 22.535156 17.21875 22.535156 22.601562 " fill-opacity="1" fill-rule="evenodd"/></g></svg>